<?xml version="1.0" standalone="no"?>
<!DOCTYPE svg PUBLIC "-//W3C//DTD SVG 20010904//EN"
 "http://www.w3.org/TR/2001/REC-SVG-20010904/DTD/svg10.dtd">
<svg version="1.0" xmlns="http://www.w3.org/2000/svg"
 width="355.000000pt" height="142.000000pt" viewBox="0 0 355.000000 142.000000"
 preserveAspectRatio="xMidYMid meet">

<g transform="translate(0.000000,142.000000) scale(0.100000,-0.100000)"
fill="#000000" stroke="none">
<path d="M268 1362 c-32 -3 -39 -8 -44 -30 -4 -15 -17 -66 -29 -114 l-23 -88
148 0 148 0 -24 -92 c-14 -51 -65 -242 -114 -425 -50 -182 -90 -336 -90 -342
0 -8 49 -11 161 -9 l162 3 112 416 c62 229 115 424 118 433 6 14 29 16 171 16
l164 0 11 33 c5 17 17 64 26 102 9 39 18 76 20 83 3 8 -8 12 -35 12 -38 0 -40
-2 -50 -42 -6 -24 -16 -58 -21 -75 l-10 -33 -172 -2 -171 -3 -117 -430 -116
-430 -73 -3 c-65 -3 -71 -1 -66 15 17 60 226 842 226 847 0 3 -69 6 -154 6
l-154 0 20 76 c10 42 18 77 16 78 -2 0 -20 0 -40 -2z"/>
<path d="M1215 1138 l-20 -73 -172 -3 -172 -2 -9 -33 c-5 -17 -58 -213 -118
-434 l-109 -403 -116 0 -117 0 -11 -31 c-6 -18 -11 -36 -11 -40 0 -5 74 -9
165 -9 91 0 165 2 165 4 0 3 52 197 115 431 63 234 115 428 115 430 0 3 76 5
169 5 l169 0 26 105 c14 57 26 109 26 115 0 5 -17 10 -38 10 l-37 0 -20 -72z"/>
<path d="M1400 708 l0 -363 240 0 240 0 0 58 0 57 -180 0 -180 0 0 100 0 100
160 0 160 0 0 55 0 55 -160 0 -160 0 0 95 0 95 180 0 180 0 0 55 0 55 -240 0
-240 0 0 -362z"/>
<path d="M2030 930 l0 -70 -40 0 -40 0 0 -50 0 -50 39 0 39 0 4 -154 c3 -137
5 -158 24 -182 42 -56 69 -69 160 -73 l84 -3 0 46 0 46 -49 0 c-34 0 -56 6
-75 21 -26 20 -26 21 -26 160 l0 139 70 0 70 0 0 50 0 50 -70 0 -70 0 0 70 0
70 -60 0 -60 0 0 -70z"/>
<path d="M2485 841 c-47 -22 -89 -64 -104 -104 -6 -16 -11 -80 -11 -143 0 -95
3 -122 20 -154 35 -69 101 -100 215 -100 118 0 198 52 212 136 l6 34 -51 0
c-46 0 -52 -3 -64 -27 -17 -37 -52 -53 -114 -53 -37 0 -59 6 -77 21 -27 20
-53 91 -42 109 4 6 77 10 177 10 l171 0 -5 84 c-5 103 -28 144 -102 181 -63
32 -170 34 -231 6z m184 -87 c13 -9 29 -32 37 -50 27 -64 27 -64 -112 -64
-111 0 -125 2 -120 16 3 9 6 25 6 36 0 11 13 33 29 49 25 25 37 29 83 29 33 0
62 -6 77 -16z"/>
<path d="M3045 841 c-46 -20 -91 -69 -103 -109 -4 -15 -7 -79 -7 -142 1 -127
10 -157 64 -203 46 -38 94 -50 182 -45 64 4 86 10 119 32 44 29 79 90 80 139
0 26 -2 27 -50 27 -49 0 -49 0 -69 -44 -17 -39 -25 -46 -62 -56 -32 -9 -53 -9
-81 -1 -60 18 -73 48 -73 162 0 83 3 102 21 126 57 76 204 39 204 -52 0 -12
12 -15 55 -15 53 0 55 1 55 28 0 34 -31 101 -56 124 -57 50 -201 65 -279 29z"/>
<path d="M1401 173 l-1 -63 38 2 c36 1 36 1 5 5 -27 4 -33 9 -33 28 0 19 6 24
33 28 l32 4 -32 1 c-26 2 -32 7 -36 30 -2 15 -5 -1 -6 -35z"/>
<path d="M1803 170 c0 -36 2 -50 4 -32 2 17 2 47 0 65 -2 17 -4 3 -4 -33z"/>
<path d="M2033 170 c0 -36 2 -50 4 -32 2 17 2 47 0 65 -2 17 -4 3 -4 -33z"/>
<path d="M2691 173 l-1 -63 43 2 42 1 -37 4 c-32 4 -38 8 -38 28 0 19 6 24 33
28 l32 4 -32 1 c-26 2 -32 7 -36 30 -2 15 -5 -1 -6 -35z"/>
<path d="M3373 170 c0 -36 2 -50 4 -32 2 17 2 47 0 65 -2 17 -4 3 -4 -33z"/>
<path d="M2892 203 c-7 -7 -8 -13 -3 -13 5 0 11 -17 13 -37 2 -20 9 -38 16
-39 7 -1 8 0 2 3 -12 6 -13 70 -1 75 5 2 4 8 -3 14 -8 8 -15 7 -24 -3z"/>
<path d="M1510 185 c-14 -17 -5 -35 18 -34 15 1 15 2 0 6 -10 2 -18 9 -18 14
0 17 30 22 48 8 15 -13 16 -12 3 4 -16 21 -35 22 -51 2z"/>
<path d="M1630 193 c8 -3 22 -11 30 -17 13 -10 13 -9 1 7 -7 9 -21 17 -30 16
-13 0 -14 -1 -1 -6z"/>
<path d="M1738 190 c18 -7 23 -16 20 -37 -2 -23 -8 -28 -30 -28 -14 1 -24 -3
-22 -7 3 -4 16 -8 29 -8 46 0 45 81 -1 87 -14 2 -13 0 4 -7z"/>
<path d="M1849 183 c-12 -16 -12 -17 1 -7 8 6 22 14 30 17 13 5 12 6 -1 6 -9
1 -23 -7 -30 -16z"/>
<path d="M2101 186 c-7 -8 -11 -27 -9 -43 2 -21 9 -29 27 -31 13 -2 27 0 32 5
6 6 -2 8 -21 5 -23 -3 -30 0 -30 12 0 11 9 16 30 16 31 0 39 17 18 38 -16 16
-33 15 -47 -2z m47 -13 c2 -8 -6 -13 -22 -13 -25 0 -33 10 -19 24 10 10 36 3
41 -11z"/>
<path d="M2201 186 c-7 -8 -11 -27 -9 -43 2 -24 8 -28 32 -28 16 0 30 6 32 13
1 7 0 8 -3 2 -2 -5 -16 -10 -29 -10 -20 0 -24 5 -24 30 0 36 22 49 48 29 15
-13 16 -12 3 4 -16 21 -35 22 -50 3z"/>
<path d="M2292 150 c1 -40 2 -41 5 -10 8 64 50 69 56 8 l4 -43 -1 45 c-1 44
-2 45 -33 45 -33 1 -33 0 -31 -45z"/>
<path d="M2540 183 c-12 -15 -12 -16 0 -5 17 15 46 16 53 2 3 -6 4 -5 3 2 -4
20 -41 21 -56 1z"/>
<path d="M2806 191 c-4 -5 3 -7 14 -4 23 6 26 13 6 13 -8 0 -17 -4 -20 -9z"/>
<path d="M2998 190 c12 -5 22 -14 22 -19 0 -5 -10 -12 -22 -14 -23 -4 -23 -4
1 -6 16 -1 21 -6 18 -16 -4 -8 -2 -17 3 -20 14 -9 12 59 -2 73 -7 7 -19 12
-27 11 -10 0 -7 -4 7 -9z"/>
<path d="M3073 193 c-16 -6 -17 -69 -2 -78 15 -10 59 3 59 17 0 9 -3 9 -12 0
-23 -23 -48 -14 -48 17 0 36 13 46 40 31 13 -7 20 -7 20 0 0 5 -4 10 -9 10 -5
0 -15 2 -23 4 -7 3 -19 2 -25 -1z"/>
<path d="M3308 190 c12 -5 22 -14 22 -19 0 -5 -10 -12 -22 -14 -23 -4 -23 -4
1 -6 16 -1 21 -6 18 -16 -4 -8 -2 -17 3 -20 14 -9 12 59 -2 73 -7 7 -19 12
-27 11 -10 0 -7 -4 7 -9z"/>
<path d="M1604 150 c1 -28 5 -36 22 -38 11 -2 27 5 34 15 12 15 12 16 0 6 -26
-24 -49 -15 -53 20 -4 32 -4 32 -3 -3z"/>
<path d="M1900 176 c0 -8 -10 -17 -22 -19 -23 -4 -23 -4 1 -6 16 -1 21 -6 18
-16 -4 -8 -2 -17 3 -20 6 -4 10 11 10 34 0 23 -2 41 -5 41 -3 0 -5 -6 -5 -14z"/>
<path d="M2393 150 c0 -25 2 -35 4 -22 2 12 2 32 0 45 -2 12 -4 2 -4 -23z"/>
<path d="M3230 161 c0 -31 -28 -50 -51 -35 -8 4 -9 3 -5 -4 4 -6 20 -10 36 -9
28 2 30 5 30 40 0 20 -2 37 -5 37 -3 0 -5 -13 -5 -29z"/>
<path d="M2800 164 c0 -2 11 -9 25 -14 37 -14 32 -34 -7 -27 -29 5 -30 4 -11
-5 12 -6 29 -8 37 -5 26 10 18 34 -14 46 -16 5 -30 8 -30 5z"/>
<path d="M2540 145 c-14 -17 -5 -35 18 -34 15 1 15 2 -1 6 -26 7 -15 27 19 34
29 7 29 7 3 8 -15 0 -32 -6 -39 -14z"/>
<path d="M1557 134 c5 -14 1 -16 -26 -12 -19 3 -28 1 -22 -5 14 -14 55 -4 59
16 2 9 -1 17 -7 17 -6 0 -8 -7 -4 -16z"/>
<path d="M1844 130 c1 -8 10 -16 21 -17 15 -1 15 0 3 3 -9 3 -19 11 -21 17 -2
7 -3 5 -3 -3z"/>
<path d="M3271 133 c-1 -18 4 -23 22 -22 15 1 17 3 5 6 -9 2 -19 12 -21 21 -3
12 -5 10 -6 -5z"/>
<path d="M2447 118 c2 -5 13 -8 23 -8 10 0 21 3 23 8 3 4 -8 7 -23 7 -15 0
-26 -3 -23 -7z"/>
<path d="M2968 118 c5 -5 16 -8 23 -6 8 3 3 7 -10 11 -17 4 -21 3 -13 -5z"/>
</g>
</svg>
